<?xml version="1.0" encoding="UTF-8" standalone="no"?><!-- Generator: Gravit.io --><svg xmlns="http://www.w3.org/2000/svg" xmlns:xlink="http://www.w3.org/1999/xlink" style="isolation:isolate" viewBox="0 0 266 287" width="266pt" height="287pt"><defs><clipPath id="_clipPath_UUPFpV0jTpKewHLh86kGYFx9N4OHv2mJ"><rect width="266" height="287"/></clipPath></defs><g clip-path="url(#_clipPath_UUPFpV0jTpKewHLh86kGYFx9N4OHv2mJ)"><path d=" M 228.5 209 L 214.5 185.5 L 224.5 180.5 L 230.5 210.5 L 228.5 209 Z " fill="rgb(246,140,36)" vector-effect="non-scaling-stroke" stroke-width="1" stroke="rgb(246,140,36)" stroke-linejoin="miter" stroke-linecap="square" stroke-miterlimit="3"/><path d=" M 235.5 244.5 L 136.5 210.5 L 112.5 255.5 L 235.5 244.5 Z " fill="rgb(229,127,37)" vector-effect="non-scaling-stroke" stroke-width="1" stroke="rgb(229,127,37)" stroke-linejoin="miter" stroke-linecap="square" stroke-miterlimit="3"/><path d=" M 136.5 210.5 L 128.5 184.5 L 94.5 167.5 L 136.5 210.5 Z " fill="rgb(229,127,37)" vector-effect="non-scaling-stroke" stroke-width="1" stroke="rgb(229,127,37)" stroke-linejoin="miter" stroke-linecap="square" stroke-miterlimit="3"/><path d=" M 112.5 255.5 L 136.5 210.5 L 86.5 224.5 L 112.5 255.5 Z " fill="rgb(216,111,33)" vector-effect="non-scaling-stroke" stroke-width="1" stroke="rgb(216,111,33)" stroke-linejoin="miter" stroke-linecap="square" stroke-miterlimit="3"/><path d=" M 1.5 224.5 L 33.5 144.5 L 83.5 144.5 L 94.5 167.5 L 136.5 210.5 L 87.5 224.5 L 1.5 224.5 Z " fill="rgb(246,140,36)" vector-effect="non-scaling-stroke" stroke-width="1" stroke="rgb(246,140,36)" stroke-linejoin="miter" stroke-linecap="square" stroke-miterlimit="3"/><path d=" M 24.5 283.5 L 112.5 255.5 L 87.5 224.5 L 1.5 224.5 L 24.5 283.5 Z " fill="rgb(229,127,37)" vector-effect="non-scaling-stroke" stroke-width="1" stroke="rgb(229,127,37)" stroke-linejoin="miter" stroke-linecap="square" stroke-miterlimit="3"/><path d=" M 235.5 244.5 L 238.5 240.5 L 254.5 237.5 L 264.5 244.5 L 256.5 262.5 L 235.5 265.5 L 235.5 244.5 Z " fill="rgb(34,31,31)" vector-effect="non-scaling-stroke" stroke-width="1" stroke="rgb(34,31,31)" stroke-linejoin="miter" stroke-linecap="square" stroke-miterlimit="3"/><path d=" M 112.5 255.5 L 235.5 244.5 L 235.5 265.5 L 210.5 278.5 L 112.5 255.5 Z " fill="rgb(218,199,185)" vector-effect="non-scaling-stroke" stroke-width="1" stroke="rgb(218,199,185)" stroke-linejoin="miter" stroke-linecap="square" stroke-miterlimit="3"/><path d=" M 256.5 262.5 L 238.5 282.5 L 197.5 285.5 L 112.5 255.5 L 210.5 278.5 L 235.5 265.5 L 256.5 262.5 Z " fill="rgb(198,181,169)" vector-effect="non-scaling-stroke" stroke-width="1" stroke="rgb(198,181,169)" stroke-linejoin="miter" stroke-linecap="square" stroke-miterlimit="3"/><path d=" M 141.5 81.5 L 83.5 144.5 L 94.5 167.5 L 151.5 167 L 167.5 194 L 235.5 244.5 L 181.5 192.5 L 141.5 81.5 Z " fill="rgb(229,127,37)" vector-effect="non-scaling-stroke" stroke-width="1" stroke="rgb(229,127,37)" stroke-linejoin="miter" stroke-linecap="square" stroke-miterlimit="3"/><path d=" M 169.5 40.5 L 202.5 165.5 L 227.5 163.5 L 230.5 136.5 L 240.5 125.5 L 238.5 113.5 L 244.5 106.5 L 235.5 102.5 L 242.5 95.5 L 233.5 87.5 L 260.5 17.5 L 169.5 40.5 Z " fill="rgb(229,127,37)" vector-effect="non-scaling-stroke" stroke-width="1" stroke="rgb(229,127,37)" stroke-linejoin="miter" stroke-linecap="square" stroke-miterlimit="3"/><path d=" M 233.5 184.5 L 230.5 210.5 L 224.5 180.5 L 227.5 163.5 L 233.5 184.5 Z " fill="rgb(229,127,37)" vector-effect="non-scaling-stroke" stroke-width="1" stroke="rgb(229,127,37)" stroke-linejoin="miter" stroke-linecap="square" stroke-miterlimit="3"/><path d=" M 230.5 136.5 L 240.5 125.5 L 238.5 113.5 L 244.5 106.5 L 235.5 102.5 L 242.5 95.5 L 233.5 87.5 L 260.5 17.5 L 180.5 81.5 L 230.5 136.5 Z " fill="rgb(128,72,30)" vector-effect="non-scaling-stroke" stroke-width="1" stroke="rgb(128,72,30)" stroke-linejoin="miter" stroke-linecap="square" stroke-miterlimit="3"/><path d=" M 84.5 1.5 L 114.5 40.5 L 141.5 81.5 L 83.5 144.5 L 33.5 144.5 L 20.5 130.5 L 30.5 125.5 L 14.5 118.5 L 27.5 115.5 L 10.5 103.5 L 20.5 100.5 L 22.5 84.5 L 40.5 42.5 L 84.5 1.5 Z " fill="rgb(128,72,30)" vector-effect="non-scaling-stroke" stroke-width="1" stroke="rgb(128,72,30)" stroke-linejoin="miter" stroke-linecap="square" stroke-miterlimit="3"/><path d=" M 238.5 240.5 L 254.5 237.5 L 230.5 210.5 L 209.5 188.5 L 169.5 40.5 L 114.5 40.5 L 141.5 81.5 L 181.5 192.5 L 235.5 244.5 L 238.5 240.5 Z " fill="rgb(246,140,36)" vector-effect="non-scaling-stroke" stroke-width="1" stroke="rgb(246,140,36)" stroke-linejoin="miter" stroke-linecap="square" stroke-miterlimit="3"/><path d=" M 214.5 185.5 L 230.5 211.5 L 209.5 188.5 L 202.5 165 L 227.5 163.5 L 224.5 180.5 L 216.5 167.5 L 214.5 185.5 Z " fill-rule="evenodd" fill="rgb(216,111,33)" vector-effect="non-scaling-stroke" stroke-width="1" stroke="rgb(216,111,33)" stroke-linejoin="miter" stroke-linecap="square" stroke-miterlimit="3"/><path d=" M 166.5 191.5 L 172.5 165 L 94.5 167.5 L 128.5 184.5 L 153.5 170.5 L 166.5 191.5 Z " fill="rgb(216,111,33)" vector-effect="non-scaling-stroke" stroke-width="1" stroke="rgb(216,111,33)" stroke-linejoin="miter" stroke-linecap="square" stroke-miterlimit="3"/><path d=" M 136.5 210.5 L 235.5 244.5 L 166.5 192.5 L 128.5 184 L 128.5 185.5 L 136.5 210.5 Z " fill="rgb(246,140,36)" vector-effect="non-scaling-stroke" stroke-width="1" stroke="rgb(246,140,36)" stroke-linejoin="miter" stroke-linecap="square" stroke-miterlimit="3"/></g></svg>