<?xml version="1.0" encoding="UTF-8" standalone="no"?><!-- Generator: Gravit.io --><svg xmlns="http://www.w3.org/2000/svg" xmlns:xlink="http://www.w3.org/1999/xlink" style="isolation:isolate" viewBox="0 0 271.39 315" width="271.39pt" height="315pt"><defs><clipPath id="_clipPath_fjihZFU6ZGejgOr1BkLlKePYE8Wx2O6H"><rect width="271.39" height="315"/></clipPath></defs><g clip-path="url(#_clipPath_fjihZFU6ZGejgOr1BkLlKePYE8Wx2O6H)"><g><path d=" M 125.323 241.39 L 44.97 241.833 C 32.532 241.893 22.402 231.862 22.342 219.424 L 21.379 18.403 C 21.366 15.713 21.833 13.04 22.759 10.514 C 13.871 13.797 7.981 22.286 8.017 31.765 L 8.98 232.786 C 9.04 245.223 19.171 255.257 31.608 255.197 L 125.908 254.678 C 125.459 251.421 125.235 248.141 125.235 244.855 C 125.235 243.694 125.269 242.541 125.323 241.39 Z " fill="rgb(178,185,199)"/><g><path d=" M 10.209 254.18 C 16.039 259.986 23.939 263.235 32.167 263.212 L 32.321 263.212 L 129.102 262.664 L 129.058 254.647 L 32.279 255.195 C 19.474 255.257 9.043 244.926 8.98 232.118 L 8.017 31.77 C 7.957 18.964 18.289 8.534 31.094 8.471 L 123.818 8.027 L 123.998 45.671 C 124.099 62.835 138.032 76.705 155.199 76.726 L 155.35 76.726 L 192.997 76.546 L 193.516 170.877 L 201.533 170.833 L 200.998 73.503 L 200.993 72.352 C 200.988 71.288 200.56 70.27 199.803 69.521 L 130.77 1.292 C 130.112 0.642 129.251 0.237 128.332 0.151 L 126.894 0.018 C 126.761 0.005 126.628 0.005 126.495 0 L 31.053 0.459 C 13.821 0.543 -0.081 14.577 0 31.809 L 0.963 232.159 C 0.982 240.44 4.311 248.368 10.209 254.18 L 10.209 254.18 Z  M 155.313 68.709 C 142.516 68.749 132.098 58.43 132.015 45.635 L 131.863 13.643 L 187.42 68.555 L 155.313 68.709 Z " fill="rgb(119,87,249)"/><path d=" M 96.852 147.99 C 94.639 147.99 92.844 149.783 92.844 151.999 C 92.844 154.212 94.639 156.007 96.852 156.007 L 110.446 156.007 C 112.659 156.007 114.454 154.212 114.454 151.999 C 114.454 149.783 112.659 147.99 110.446 147.99 L 96.852 147.99 Z " fill="rgb(119,87,249)"/><path d=" M 161.318 118.003 C 161.318 115.79 159.523 113.995 157.31 113.995 L 44.445 113.995 C 42.232 113.995 40.437 115.79 40.437 118.003 C 40.437 120.219 42.232 122.011 44.445 122.011 L 157.31 122.011 C 159.523 122.011 161.318 120.219 161.318 118.003 Z " fill="rgb(119,87,249)"/><path d=" M 44.445 147.99 C 42.232 147.99 40.437 149.783 40.437 151.999 C 40.437 154.212 42.232 156.007 44.445 156.007 L 79.626 156.007 C 81.839 156.007 83.634 154.212 83.634 151.999 C 83.634 149.783 81.839 147.99 79.626 147.99 L 44.445 147.99 Z " fill="rgb(119,87,249)"/></g><path d=" M 176.733 237.269 L 193.378 221.781 L 193.378 269.115 C 193.378 271.33 195.171 273.123 197.386 273.123 C 199.599 273.123 201.395 271.33 201.395 269.115 L 201.395 221.781 L 218.036 237.269 C 219.657 238.777 222.193 238.689 223.702 237.068 C 225.21 235.448 225.119 232.911 223.498 231.403 L 200.116 209.641 C 198.576 208.208 196.194 208.208 194.654 209.641 L 171.271 231.403 C 169.651 232.911 169.56 235.448 171.068 237.068 C 172.576 238.689 175.113 238.777 176.733 237.269 L 176.733 237.269 Z " fill="rgb(0,156,222)"/><path d=" M 197.386 315 C 229.08 314.969 257.244 294.773 267.445 264.762 C 277.646 234.751 267.622 201.577 242.512 182.234 C 217.4 162.894 182.767 161.67 156.355 179.194 C 129.942 196.718 117.604 229.103 125.663 259.756 C 134.28 292.304 163.717 314.979 197.386 315 L 197.386 315 Z  M 197.386 174.705 C 233.96 174.674 263.629 204.309 263.64 240.883 C 263.65 277.458 234 307.111 197.423 307.101 C 160.849 307.09 131.213 277.421 131.247 240.844 C 131.286 204.335 160.875 174.747 197.386 174.705 L 197.386 174.705 Z " fill="rgb(0,156,222)"/></g></g></svg>