<?xml version="1.0" encoding="UTF-8"?>
<svg width="256px" height="48px" viewBox="0 0 256 48" version="1.1" xmlns="http://www.w3.org/2000/svg" xmlns:xlink="http://www.w3.org/1999/xlink">
    <!-- Generator: Sketch 49.2 (51160) - http://www.bohemiancoding.com/sketch -->
    <title>civic_btn-dark</title>
    <desc>Created with Sketch.</desc>
    <defs></defs>
    <g id="civic_btn-dark" stroke="none" stroke-width="1" fill="none" fill-rule="evenodd">
        <g id="button-green">
            <rect id="button-bg" fill="#3AB03E" x="0" y="0" width="256" height="48" rx="24"></rect>
            <text id="Connect-with-Civic" font-family="SourceSansPro-Semibold, Source Sans Pro" font-size="18" font-weight="500" fill="#FFFFFF">
                <tspan x="64.351" y="30">Connect with Civic</tspan>
            </text>
            <path d="M15,24 C15,28.7557705 18.8112793,33 24,33 C28.3410645,33 31.8986122,30.5324628 32.9909576,27 L36,27 C34.8386328,32.1411987 30.861084,36 24,36 C16.3657227,36 12,30.8982832 12,24.0000449 C12,17.1018066 16.3879395,12 24,12 C31.0664062,12 34.8386328,15.8588013 36,21 L32.9909576,21 C31.8986122,17.4674474 28.6115723,15 24,15 C18.4970703,15 15,19.2441397 15,24 Z M24,20 C25.6569,20 27,21.2859605 27,22.872371 C27,24.006383 25.9967,24.9866275 25,25.4535793 L25,29 L23,29 L23,25.4535793 C22.0032,24.9866275 21,24.006383 21,22.872371 C21,21.2859605 22.3432,20 24,20 Z" id="ICON" fill="#FFFFFE"></path>
        </g>
    </g>
</svg>